<svg width="680" height="729" viewBox="0 0 680 729" fill="none" xmlns="http://www.w3.org/2000/svg">
<path d="M369.309 725.559C366.964 726.897 364.956 727.903 362.612 728.571V691.5V385.046L677.01 205.58C678.683 212.947 679.684 220.983 679.684 231.027V491.853C679.684 540.401 662.61 558.483 631.472 576.229L369.309 725.559Z" fill="#E60000"/>
<path d="M655.246 165.737L339.843 344.866L24.4414 165.737C29.4643 160.714 35.4913 156.697 42.8571 152.679L278.906 18.0814C299.665 6.36143 319.754 0 339.843 0C359.933 0 380.023 6.36143 400.782 18.0814L636.828 152.679C644.192 156.697 650.219 160.714 655.246 165.737Z" fill="#004AAD"/>
<path d="M317.076 385.046V728.571C314.732 727.903 312.723 726.897 310.379 725.559L48.2142 576.229C17.0757 558.483 0 540.401 0 491.853V231.027C0 220.983 1.00418 212.947 2.67847 205.58L317.076 385.046Z" fill="black"/>
</svg>
