<svg width="800" height="800" viewBox="0 0 800 800" fill="none" xmlns="http://www.w3.org/2000/svg">
<path d="M686.125 334.125C700.766 396.046 694.923 461.046 669.474 519.364C644.024 577.682 600.342 626.169 544.987 657.545C489.632 688.921 425.592 701.491 362.484 693.369C299.376 685.247 240.606 656.87 195 612.5" stroke="#9AA3AF" stroke-width="37.5" stroke-linecap="round"/>
<path d="M112.5 464.625C108.086 444.085 105.865 423.134 105.875 402.125C105.758 344.405 122.642 287.93 154.419 239.744C186.196 191.559 231.459 153.799 284.56 131.174C337.661 108.55 396.248 102.064 453.012 112.526C509.776 122.987 562.203 149.933 603.75 190" stroke="#9AA3AF" stroke-width="37.5" stroke-linecap="round"/>
<path d="M471.625 203L607.75 193L597.125 65.5" stroke="#9AA3AF" stroke-width="37.5" stroke-linecap="round"/>
<path d="M323.875 597L187.875 607L198.5 734.5" stroke="#9AA3AF" stroke-width="37.5" stroke-linecap="round"/>
</svg>
