<svg width="800" height="800" viewBox="0 0 800 800" fill="none" xmlns="http://www.w3.org/2000/svg">
<path d="M740.086 137.93H59.9141C26.8234 137.93 0 164.753 0 197.844V602.156C0 635.245 26.8234 662.07 59.9141 662.07H740.086C773.175 662.07 800 635.247 800 602.156V197.844C800 164.753 773.177 137.93 740.086 137.93Z" fill="#73AF00"/>
<path d="M392.829 211.261L102.116 388.215C93.2867 393.589 93.2867 406.404 102.116 411.779L392.829 588.737C397.234 591.419 402.766 591.419 407.173 588.737L697.885 411.781C706.715 406.408 706.715 393.592 697.885 388.217L407.173 211.261C402.768 208.581 397.234 208.581 392.829 211.261Z" fill="#FFE15A"/>
<path d="M400 510.342C460.941 510.342 510.344 460.939 510.344 399.998C510.344 339.057 460.941 289.654 400 289.654C339.059 289.654 289.656 339.057 289.656 399.998C289.656 460.939 339.059 510.342 400 510.342Z" fill="#41479B"/>
<path d="M305.312 343.55C300.106 352.266 296.086 361.738 293.43 371.795C354.6 367.192 445.089 384.305 502.683 440.191C506.442 430.595 508.925 420.374 509.855 409.688C450.386 359.636 368.169 341.838 305.312 343.55Z" fill="#F5F5F5"/>
<path d="M404.57 437.654L407.508 446.464L416.794 446.536C417.995 446.545 418.494 448.079 417.526 448.794L410.056 454.311L412.858 463.164C413.22 464.311 411.914 465.259 410.937 464.559L403.383 459.159L395.828 464.559C394.85 465.258 393.545 464.311 393.908 463.164L396.709 454.311L389.239 448.794C388.272 448.079 388.77 446.545 389.972 446.536L399.258 446.464L402.195 437.654C402.576 436.512 404.189 436.512 404.57 437.654Z" fill="#F5F5F5"/>
<path d="M440.663 460.442L441.927 464.233L445.924 464.264C446.441 464.267 446.655 464.928 446.24 465.236L443.024 467.61L444.229 471.421C444.383 471.914 443.824 472.322 443.4 472.02L440.149 469.697L436.897 472.02C436.477 472.322 435.915 471.914 436.071 471.421L437.275 467.61L434.06 465.236C433.643 464.93 433.858 464.269 434.375 464.264L438.372 464.233L439.636 460.442C439.804 459.95 440.499 459.95 440.663 460.442Z" fill="#F5F5F5"/>
<path d="M388.965 420.919L390.229 424.71L394.226 424.741C394.743 424.744 394.959 425.405 394.542 425.713L391.326 428.087L392.531 431.897C392.685 432.391 392.126 432.799 391.704 432.497L388.453 430.174L385.201 432.497C384.781 432.799 384.218 432.391 384.373 431.897L385.578 428.087L382.362 425.713C381.946 425.407 382.16 424.746 382.678 424.741L386.674 424.71L387.938 420.919C388.106 420.432 388.801 420.432 388.965 420.919Z" fill="#F5F5F5"/>
<path d="M318.954 416.322L320.218 420.112L324.215 420.144C324.732 420.147 324.948 420.808 324.531 421.116L321.315 423.489L322.52 427.3C322.674 427.794 322.115 428.202 321.691 427.9L318.44 425.577L315.188 427.9C314.768 428.2 314.206 427.794 314.362 427.3L315.566 423.489L312.351 421.116C311.934 420.809 312.149 420.148 312.666 420.144L316.663 420.112L317.927 416.322C318.096 415.833 318.79 415.833 318.954 416.322Z" fill="#F5F5F5"/>
<path d="M377.522 459.135L378.786 462.925L382.783 462.956C383.3 462.96 383.515 463.62 383.098 463.928L379.883 466.302L381.087 470.113C381.242 470.606 380.683 471.014 380.261 470.713L377.009 468.389L373.758 470.713C373.337 471.014 372.775 470.606 372.929 470.113L374.134 466.302L370.919 463.928C370.503 463.622 370.717 462.961 371.234 462.956L375.231 462.925L376.495 459.135C376.664 458.644 377.359 458.644 377.522 459.135Z" fill="#F5F5F5"/>
<path d="M345.297 413.677L346.331 416.777L349.6 416.804C350.022 416.807 350.198 417.347 349.859 417.599L347.23 419.539L348.215 422.655C348.344 423.058 347.884 423.393 347.539 423.146L344.88 421.246L342.22 423.146C341.875 423.393 341.417 423.058 341.544 422.655L342.53 419.539L339.9 417.599C339.561 417.347 339.734 416.807 340.159 416.804L343.428 416.777L344.462 413.677C344.595 413.277 345.162 413.277 345.297 413.677Z" fill="#F5F5F5"/>
<path d="M443.467 349.679L444.761 353.557L448.848 353.588C449.378 353.591 449.597 354.268 449.17 354.583L445.883 357.011L447.116 360.91C447.277 361.414 446.7 361.832 446.27 361.524L442.944 359.146L439.617 361.524C439.186 361.833 438.613 361.413 438.772 360.91L440.005 357.011L436.717 354.583C436.291 354.269 436.511 353.594 437.039 353.588L441.127 353.557L442.42 349.679C442.589 349.172 443.3 349.172 443.467 349.679Z" fill="#F5F5F5"/>
<path d="M323.456 394.711L324.49 397.811L327.759 397.838C328.181 397.841 328.357 398.382 328.018 398.633L325.388 400.574L326.374 403.689C326.502 404.093 326.043 404.427 325.698 404.18L323.038 402.28L320.379 404.18C320.034 404.427 319.576 404.093 319.702 403.689L320.688 400.574L318.059 398.633C317.718 398.382 317.893 397.843 318.318 397.838L321.587 397.811L322.621 394.711C322.754 394.31 323.321 394.31 323.456 394.711Z" fill="#F5F5F5"/>
<path d="M339.238 438.408L340.804 443.104L345.754 443.141C346.394 443.146 346.66 443.963 346.144 444.344L342.162 447.285L343.655 452.004C343.849 452.614 343.154 453.121 342.632 452.747L338.604 449.868L334.576 452.747C334.055 453.119 333.358 452.614 333.552 452.004L335.046 447.285L331.063 444.344C330.548 443.963 330.813 443.146 331.454 443.141L336.404 443.104L337.969 438.408C338.177 437.799 339.037 437.799 339.238 438.408Z" fill="#F5F5F5"/>
<path d="M460.785 461.427L461.771 464.381L464.885 464.405C465.288 464.408 465.456 464.922 465.132 465.161L462.627 467.011L463.567 469.98C463.687 470.364 463.251 470.681 462.921 470.447L460.388 468.636L457.854 470.447C457.526 470.681 457.088 470.364 457.209 469.98L458.148 467.011L455.643 465.161C455.32 464.922 455.487 464.408 455.89 464.405L459.004 464.381L459.988 461.427C460.117 461.044 460.659 461.044 460.785 461.427Z" fill="#F5F5F5"/>
<path d="M471.682 438.88L472.946 442.67L476.943 442.702C477.46 442.705 477.676 443.366 477.259 443.674L474.043 446.047L475.248 449.858C475.403 450.352 474.843 450.76 474.421 450.458L471.17 448.135L467.918 450.458C467.498 450.76 466.935 450.352 467.092 449.858L468.296 446.047L465.081 443.674C464.665 443.367 464.879 442.706 465.396 442.702L469.393 442.67L470.657 438.88C470.823 438.388 471.518 438.388 471.682 438.88Z" fill="#F5F5F5"/>
</svg>
