<svg width="800" height="800" viewBox="0 0 800 800" fill="none" xmlns="http://www.w3.org/2000/svg">
<path d="M575.353 381.34C662.603 381.34 733.333 310.897 733.333 224.003C733.333 137.109 662.603 66.667 575.353 66.667C488.1 66.667 417.37 137.109 417.37 224.003C417.37 264.252 435.74 293.523 435.74 293.523L244.693 483.79C236.121 492.327 224.119 514.527 244.693 535.017L266.737 556.97C275.309 564.287 296.863 574.534 314.498 556.97L340.216 531.357C365.933 556.97 395.326 542.334 406.346 527.697C424.716 502.084 402.673 476.474 402.673 476.474L410.023 469.154C445.293 504.28 476.153 483.79 487.176 469.154C505.546 443.54 487.176 417.927 487.176 417.927C479.826 403.294 465.133 403.294 483.5 384.997L505.546 363.044C523.18 377.68 559.43 381.34 575.353 381.34Z" stroke="#808080" stroke-width="50" stroke-linejoin="round"/>
<path d="M66.667 399.664C66.667 556.957 66.667 635.604 115.532 684.47C164.396 733.334 243.043 733.334 400.337 733.334C557.627 733.334 636.274 733.334 685.14 684.47C722.307 647.3 731.204 592.9 733.334 499.767M300.235 66.667C207.1 68.7963 152.7 77.693 115.532 114.862C82.9717 147.421 72.1073 193.204 68.4823 266.667" stroke="#808080" stroke-width="50" stroke-linecap="round"/>
</svg>
