<svg width="800" height="800" viewBox="0 0 800 800" fill="none" xmlns="http://www.w3.org/2000/svg">
<path d="M733.333 350V400C733.333 557.133 733.333 635.703 684.516 684.516C635.703 733.333 557.133 733.333 399.999 733.333C242.864 733.333 164.297 733.333 115.482 684.516C66.666 635.703 66.666 557.133 66.666 400C66.666 242.865 66.666 164.297 115.482 115.482C164.297 66.6665 242.864 66.6665 399.999 66.6665H449.999" stroke="#3F566C" stroke-width="50" stroke-linecap="round"/>
<path d="M280.413 463.333L299.696 405.487C305.718 387.417 308.73 378.383 312.781 369.883C317.559 359.857 323.416 350.38 330.247 341.623C336.039 334.197 342.773 327.465 356.239 313.998L555.066 115.169L576.696 93.5413C612.529 57.7083 670.626 57.7083 706.459 93.5413C742.289 129.375 742.289 187.472 706.459 223.305L684.829 244.932M555.066 115.169C555.066 115.169 557.769 161.126 598.323 201.677C638.873 242.228 684.829 244.932 684.829 244.932M280.413 463.333L267.936 500.763C264.973 509.657 267.287 519.457 273.914 526.087C280.541 532.713 290.344 535.027 299.236 532.063L336.666 519.587L394.513 500.303C412.583 494.28 421.616 491.27 430.116 487.22C440.143 482.44 449.619 476.583 458.376 469.753C465.803 463.96 472.536 457.227 486.003 443.76L684.829 244.932M280.413 463.333L336.666 519.587" stroke="#3F566C" stroke-width="50"/>
</svg>
