<svg width="806" height="806" viewBox="0 0 806 806" fill="none" xmlns="http://www.w3.org/2000/svg">
<path fill-rule="evenodd" clip-rule="evenodd" d="M693.548 2.78245L68.5178 159.04C-14.555 179.808 -24.9251 293.673 53.0289 329.108L245.604 416.642C285.085 434.586 327.824 441.07 369.357 436.645C364.933 478.178 371.412 520.915 389.36 560.397L476.894 752.97C512.33 830.926 626.194 820.554 646.962 737.484L803.217 112.453C819.778 46.2192 759.782 -13.7758 693.548 2.78245ZM278.953 343.272C316.713 360.438 358.977 361.747 396.823 348.325C411.127 343.252 424.8 336.071 437.36 326.847C439.109 325.562 440.838 324.236 442.542 322.874L534.771 249.09C549.451 237.347 568.655 256.552 556.909 271.231L483.128 363.46C481.762 365.165 480.44 366.893 479.155 368.642C469.931 381.202 462.75 394.875 457.677 409.18C444.251 447.025 445.564 489.287 462.726 527.048L550.26 719.621C554.121 728.108 566.516 726.979 568.776 717.937L725.035 92.9065C726.836 85.696 720.304 79.1649 713.095 80.9677L88.0644 237.225C79.0205 239.486 77.8918 251.881 86.378 255.739L278.953 343.272Z" fill="#3F566C"/>
</svg>
