<svg width="816" height="816" viewBox="0 0 816 816" fill="none" xmlns="http://www.w3.org/2000/svg">
<path fill-rule="evenodd" clip-rule="evenodd" d="M704.965 110.002C684.376 113.665 655.184 123.245 608.441 138.826L255.721 256.399C210.761 271.386 179.04 281.977 156.222 290.88C144.937 295.283 137.078 298.8 131.613 301.684C126.984 304.126 125.32 305.471 125.221 305.54C103.166 326.89 103.166 362.267 125.221 383.617C125.32 383.688 126.984 385.03 131.613 387.475C137.078 390.355 144.937 393.877 156.222 398.278C179.04 407.179 210.761 417.77 255.721 432.757C256.753 433.105 257.775 433.442 258.791 433.779C273.648 438.723 286.689 443.06 298.698 449.412C327.634 464.714 351.288 488.368 366.59 517.304C372.943 529.313 377.279 542.355 382.224 557.212C382.561 558.228 382.898 559.249 383.246 560.282C398.233 605.243 408.823 636.961 417.724 659.778C422.126 671.065 425.647 678.922 428.527 684.389C430.972 689.018 432.315 690.681 432.385 690.779C453.735 712.836 489.111 712.836 510.461 690.779C510.531 690.681 511.874 689.018 514.319 684.389C517.199 678.922 520.72 671.065 525.122 659.778C534.023 636.961 544.613 605.243 559.6 560.282L677.176 207.561C692.755 160.819 702.335 131.627 705.997 111.037C706.074 110.608 706.15 110.191 706.215 109.785C705.813 109.854 705.394 109.926 704.965 110.002ZM719.039 108.746C719.039 108.746 718.849 108.742 718.534 108.673C718.892 108.702 719.039 108.746 719.039 108.746ZM707.329 97.466C707.258 97.1541 707.258 96.9644 707.258 96.9644C707.258 96.9644 707.302 97.109 707.329 97.466ZM685.93 3.00203C715.871 -2.32382 756.87 -3.91 788.393 27.6099C819.91 59.1303 818.323 100.13 812.998 130.071C807.765 159.492 795.463 196.396 781.579 238.036L780.28 241.929L662.705 594.646L662.194 596.179C647.832 639.265 636.388 673.602 626.368 699.283C616.951 723.421 605.784 748.439 588.966 765.937C524.823 832.688 418.023 832.688 353.88 765.937C337.062 748.439 325.895 723.421 316.478 699.283C306.458 673.608 295.014 639.265 280.652 596.19L280.141 594.646C273.599 575.019 272.126 571.144 270.523 568.112C265.42 558.467 257.536 550.582 247.889 545.48C244.856 543.877 240.982 542.404 221.354 535.861L219.815 535.351C176.735 520.989 142.397 509.545 116.719 499.524C92.5816 490.107 67.5657 478.94 50.065 462.122C-16.6883 397.974 -16.6883 291.181 50.065 227.035C67.5657 210.218 92.5816 199.051 116.719 189.634C142.398 179.615 176.737 168.168 219.819 153.808L221.354 153.296L574.071 35.7233C575.375 35.2892 576.674 34.8566 577.967 34.4257C619.608 20.5413 656.51 8.23605 685.93 3.00203Z" fill="#3F566C"/>
</svg>
