<svg width="800" height="800" viewBox="0 0 800 800" fill="none" xmlns="http://www.w3.org/2000/svg">
<mask id="mask0_4086_1190" style="mask-type:luminance" maskUnits="userSpaceOnUse" x="0" y="114" width="800" height="572">
<path d="M742.857 114.286H57.1429C25.5837 114.286 0 139.87 0 171.429V628.572C0 660.131 25.5837 685.715 57.1429 685.715H742.857C774.416 685.715 800 660.131 800 628.572V171.429C800 139.87 774.416 114.286 742.857 114.286Z" fill="white"/>
</mask>
<g mask="url(#mask0_4086_1190)">
<path d="M742.857 114.286H57.1429C25.5837 114.286 0 139.87 0 171.429V628.572C0 660.131 25.5837 685.715 57.1429 685.715H742.857C774.416 685.715 800 660.131 800 628.572V171.429C800 139.87 774.416 114.286 742.857 114.286Z" fill="white"/>
<mask id="mask1_4086_1190" style="mask-type:alpha" maskUnits="userSpaceOnUse" x="0" y="114" width="800" height="572">
<path d="M742.857 114.286H57.1429C25.5837 114.286 0 139.87 0 171.429V628.572C0 660.131 25.5837 685.715 57.1429 685.715H742.857C774.416 685.715 800 660.131 800 628.572V171.429C800 139.87 774.416 114.286 742.857 114.286Z" fill="white"/>
</mask>
<g mask="url(#mask1_4086_1190)">
<path fill-rule="evenodd" clip-rule="evenodd" d="M800 114.286H0V152.381H800V114.286ZM800 190.477H0V228.572H800V190.477ZM0 266.667H800V304.762H0V266.667ZM800 342.858H0V380.953H800V342.858ZM0 419.049H800V457.143H0V419.049ZM800 495.238H0V533.335H800V495.238ZM0 571.429H800V609.523H0V571.429ZM800 647.62H0V685.715H800V647.62Z" fill="#D02F44"/>
<path d="M342.857 114.286H0V380.953H342.857V114.286Z" fill="#46467F"/>
<g filter="url(#filter0_d_4086_1190)">
<path fill-rule="evenodd" clip-rule="evenodd" d="M76.1892 171.428C76.1892 181.948 67.6612 190.476 57.1415 190.476C46.6217 190.476 38.0938 181.948 38.0938 171.428C38.0938 160.909 46.6217 152.381 57.1415 152.381C67.6612 152.381 76.1892 160.909 76.1892 171.428ZM152.379 171.428C152.379 181.948 143.852 190.476 133.332 190.476C122.812 190.476 114.284 181.948 114.284 171.428C114.284 160.909 122.812 152.381 133.332 152.381C143.852 152.381 152.379 160.909 152.379 171.428ZM209.522 190.476C220.042 190.476 228.57 181.948 228.57 171.428C228.57 160.909 220.042 152.381 209.522 152.381C199.003 152.381 190.475 160.909 190.475 171.428C190.475 181.948 199.003 190.476 209.522 190.476ZM304.759 171.428C304.759 181.948 296.233 190.476 285.713 190.476C275.193 190.476 266.665 181.948 266.665 171.428C266.665 160.909 275.193 152.381 285.713 152.381C296.233 152.381 304.759 160.909 304.759 171.428ZM95.2366 228.571C105.756 228.571 114.284 220.043 114.284 209.524C114.284 199.004 105.756 190.476 95.2366 190.476C84.7169 190.476 76.1892 199.004 76.1892 209.524C76.1892 220.043 84.7169 228.571 95.2366 228.571ZM190.475 209.524C190.475 220.043 181.947 228.571 171.427 228.571C160.907 228.571 152.379 220.043 152.379 209.524C152.379 199.004 160.907 190.476 171.427 190.476C181.947 190.476 190.475 199.004 190.475 209.524ZM247.618 228.571C258.137 228.571 266.665 220.043 266.665 209.524C266.665 199.004 258.137 190.476 247.618 190.476C237.098 190.476 228.57 199.004 228.57 209.524C228.57 220.043 237.098 228.571 247.618 228.571ZM304.759 247.619C304.759 258.139 296.233 266.667 285.713 266.667C275.193 266.667 266.665 258.139 266.665 247.619C266.665 237.099 275.193 228.571 285.713 228.571C296.233 228.571 304.759 237.099 304.759 247.619ZM209.522 266.667C220.042 266.667 228.57 258.139 228.57 247.619C228.57 237.099 220.042 228.571 209.522 228.571C199.003 228.571 190.475 237.099 190.475 247.619C190.475 258.139 199.003 266.667 209.522 266.667ZM152.379 247.619C152.379 258.139 143.852 266.667 133.332 266.667C122.812 266.667 114.284 258.139 114.284 247.619C114.284 237.099 122.812 228.571 133.332 228.571C143.852 228.571 152.379 237.099 152.379 247.619ZM57.1415 266.667C67.6612 266.667 76.1892 258.139 76.1892 247.619C76.1892 237.099 67.6612 228.571 57.1415 228.571C46.6217 228.571 38.0938 237.099 38.0938 247.619C38.0938 258.139 46.6217 266.667 57.1415 266.667ZM114.284 285.714C114.284 296.234 105.756 304.762 95.2366 304.762C84.7169 304.762 76.1892 296.234 76.1892 285.714C76.1892 275.194 84.7169 266.667 95.2366 266.667C105.756 266.667 114.284 275.194 114.284 285.714ZM171.427 304.762C181.947 304.762 190.475 296.234 190.475 285.714C190.475 275.194 181.947 266.667 171.427 266.667C160.907 266.667 152.379 275.194 152.379 285.714C152.379 296.234 160.907 304.762 171.427 304.762ZM266.665 285.714C266.665 296.234 258.137 304.762 247.618 304.762C237.098 304.762 228.57 296.234 228.57 285.714C228.57 275.194 237.098 266.667 247.618 266.667C258.137 266.667 266.665 275.194 266.665 285.714ZM285.713 342.857C296.233 342.857 304.759 334.329 304.759 323.809C304.759 313.29 296.233 304.762 285.713 304.762C275.193 304.762 266.665 313.29 266.665 323.809C266.665 334.329 275.193 342.857 285.713 342.857ZM228.57 323.809C228.57 334.329 220.042 342.857 209.522 342.857C199.003 342.857 190.475 334.329 190.475 323.809C190.475 313.29 199.003 304.762 209.522 304.762C220.042 304.762 228.57 313.29 228.57 323.809ZM133.332 342.857C143.852 342.857 152.379 334.329 152.379 323.809C152.379 313.29 143.852 304.762 133.332 304.762C122.812 304.762 114.284 313.29 114.284 323.809C114.284 334.329 122.812 342.857 133.332 342.857ZM76.1892 323.809C76.1892 334.329 67.6612 342.857 57.1415 342.857C46.6217 342.857 38.0938 334.329 38.0938 323.809C38.0938 313.29 46.6217 304.762 57.1415 304.762C67.6612 304.762 76.1892 313.29 76.1892 323.809Z" fill="url(#paint0_linear_4086_1190)"/>
</g>
</g>
</g>
<defs>
<filter id="filter0_d_4086_1190" x="38.0938" y="152.381" width="266.664" height="219.048" filterUnits="userSpaceOnUse" color-interpolation-filters="sRGB">
<feFlood flood-opacity="0" result="BackgroundImageFix"/>
<feColorMatrix in="SourceAlpha" type="matrix" values="0 0 0 0 0 0 0 0 0 0 0 0 0 0 0 0 0 0 127 0" result="hardAlpha"/>
<feOffset dy="28.5714"/>
<feColorMatrix type="matrix" values="0 0 0 0 0 0 0 0 0 0 0 0 0 0 0 0 0 0 0.06 0"/>
<feBlend mode="normal" in2="BackgroundImageFix" result="effect1_dropShadow_4086_1190"/>
<feBlend mode="normal" in="SourceGraphic" in2="effect1_dropShadow_4086_1190" result="shape"/>
</filter>
<linearGradient id="paint0_linear_4086_1190" x1="38.0938" y1="152.381" x2="38.0938" y2="342.857" gradientUnits="userSpaceOnUse">
<stop stop-color="white"/>
<stop offset="1" stop-color="#F0F0F0"/>
</linearGradient>
</defs>
</svg>
