<svg width="800" height="800" viewBox="0 0 800 800" fill="none" xmlns="http://www.w3.org/2000/svg">
<path d="M500 600H300" stroke="#808080" stroke-width="50" stroke-linecap="round"/>
<path d="M721.196 431.93L711.906 496.507C695.656 609.424 687.533 665.88 648.366 699.607C609.196 733.334 551.753 733.334 436.869 733.334H363.129C248.245 733.334 190.802 733.334 151.634 699.607C112.465 665.88 104.341 609.424 88.0939 496.507L78.8016 431.93C66.1536 344.027 59.8296 300.077 77.8449 262.499C95.8602 224.92 134.206 202.078 210.896 156.394L257.058 128.896C326.701 87.41 361.523 66.667 399.999 66.667C438.476 66.667 473.299 87.41 542.939 128.896L589.103 156.394C665.793 202.078 704.139 224.92 722.153 262.499" stroke="#808080" stroke-width="50" stroke-linecap="round"/>
</svg>
