<svg width="800" height="800" viewBox="0 0 800 800" fill="none" xmlns="http://www.w3.org/2000/svg">
<g clip-path="url(#clip0_4086_1225)">
<path d="M800.001 600C800.001 623.575 790.636 646.184 773.966 662.854C757.296 679.524 734.687 688.889 711.112 688.889H533.334V111.111H711.112C734.687 111.111 757.296 120.476 773.966 137.146C790.636 153.816 800.001 176.425 800.001 200V600Z" fill="#CE2B37"/>
<path d="M88.8889 111.111C65.3141 111.111 42.7049 120.476 26.035 137.146C9.36505 153.816 0 176.425 0 200L0 600C0 623.575 9.36505 646.184 26.035 662.854C42.7049 679.524 65.3141 688.889 88.8889 688.889H266.667V111.111H88.8889Z" fill="#009246"/>
<path d="M266.666 111.111H533.333V688.889H266.666V111.111Z" fill="#EEEEEE"/>
</g>
<defs>
<clipPath id="clip0_4086_1225">
<rect width="800" height="800" fill="white"/>
</clipPath>
</defs>
</svg>
