<svg width="667" height="667" viewBox="0 0 667 667" fill="none" xmlns="http://www.w3.org/2000/svg">
<path fill-rule="evenodd" clip-rule="evenodd" d="M333.333 666.667C176.198 666.667 97.631 666.667 48.8157 617.85C-3.97364e-06 569.037 0 490.467 0 333.333C0 176.198 -3.97364e-06 97.631 48.8157 48.8157C97.631 -3.97364e-06 176.198 0 333.333 0C490.467 0 569.037 -3.97364e-06 617.85 48.8157C666.667 97.631 666.667 176.198 666.667 333.333C666.667 490.467 666.667 569.037 617.85 617.85C569.037 666.667 490.467 666.667 333.333 666.667ZM239.933 175H243.401C273.35 174.999 298.323 174.998 318.15 177.664C339.077 180.477 357.97 186.666 373.15 201.849C388.333 217.031 394.523 235.924 397.337 256.851C400.003 276.677 400 301.65 400 331.6V333.333C400 347.14 388.807 358.333 375 358.333C361.193 358.333 350 347.14 350 333.333C350 301.2 349.947 279.613 347.783 263.513C345.713 248.131 342.14 241.548 337.797 237.204C333.453 232.86 326.87 229.286 311.487 227.218C295.387 225.053 273.8 225 241.667 225C209.533 225 187.948 225.053 171.846 227.218C156.464 229.286 149.881 232.86 145.537 237.204C141.193 241.548 137.619 248.131 135.551 263.513C133.387 279.613 133.333 301.2 133.333 333.333C133.333 365.467 133.387 387.053 135.551 403.153C137.619 418.537 141.193 425.12 145.537 429.463C149.881 433.807 156.464 437.38 171.846 439.45C187.948 441.613 209.533 441.667 241.667 441.667C255.474 441.667 266.667 452.86 266.667 466.667C266.667 480.473 255.474 491.667 241.667 491.667H239.933C209.984 491.667 185.01 491.67 165.184 489.003C144.258 486.19 125.364 480 110.182 464.817C94.9997 449.637 88.8107 430.743 85.997 409.817C83.3317 389.99 83.3323 365.017 83.3333 335.067V331.6C83.3323 301.65 83.3317 276.677 85.997 256.851C88.8107 235.924 94.9997 217.031 110.182 201.849C125.364 186.666 144.258 180.477 165.184 177.664C185.01 174.998 209.985 174.999 239.933 175ZM494.82 227.218C478.72 225.053 457.133 225 425 225C411.193 225 400 213.807 400 200C400 186.193 411.193 175 425 175H426.733C456.683 174.999 481.657 174.998 501.483 177.664C522.41 180.477 541.303 186.666 556.483 201.849C571.667 217.031 577.857 235.924 580.67 256.851C583.337 276.677 583.333 301.65 583.333 331.597V335.067C583.333 365.017 583.337 389.99 580.67 409.817C577.857 430.743 571.667 449.637 556.483 464.817C541.303 480 522.41 486.19 501.483 489.003C481.657 491.67 456.683 491.667 426.733 491.667H423.267C393.317 491.667 368.343 491.67 348.517 489.003C327.59 486.19 308.697 480 293.517 464.817C278.333 449.637 272.143 430.743 269.33 409.817C266.665 389.99 266.666 365.017 266.667 335.067V333.333C266.667 319.527 277.86 308.333 291.667 308.333C305.473 308.333 316.667 319.527 316.667 333.333C316.667 365.467 316.72 387.053 318.883 403.153C320.953 418.537 324.527 425.12 328.87 429.463C333.213 433.807 339.797 437.38 355.18 439.45C371.28 441.613 392.867 441.667 425 441.667C457.133 441.667 478.72 441.613 494.82 439.45C510.203 437.38 516.787 433.807 521.13 429.463C525.473 425.12 529.047 418.537 531.117 403.153C533.28 387.053 533.333 365.467 533.333 333.333C533.333 301.2 533.28 279.613 531.117 263.513C529.047 248.131 525.473 241.548 521.13 237.204C516.787 232.86 510.203 229.286 494.82 227.218Z" fill="#3F566C"/>
</svg>
