<svg width="667" height="667" viewBox="0 0 667 667" fill="none" xmlns="http://www.w3.org/2000/svg">
<path fill-rule="evenodd" clip-rule="evenodd" d="M48.8157 617.85C97.631 666.667 176.198 666.667 333.333 666.667C490.467 666.667 569.037 666.667 617.85 617.85C666.667 569.037 666.667 490.467 666.667 333.333C666.667 176.198 666.667 97.631 617.85 48.8157C569.037 -3.97364e-06 490.467 0 333.333 0C176.198 0 97.631 -3.97364e-06 48.8157 48.8157C-3.97364e-06 97.631 0 176.198 0 333.333C0 490.467 -3.97364e-06 569.037 48.8157 617.85ZM250 225C190.169 225 141.667 273.503 141.667 333.333C141.667 393.163 190.169 441.667 250 441.667C309.83 441.667 358.333 393.163 358.333 333.333C358.333 319.527 369.527 308.333 383.333 308.333C397.14 308.333 408.333 319.527 408.333 333.333C408.333 420.78 337.447 491.667 250 491.667C162.555 491.667 91.6667 420.78 91.6667 333.333C91.6667 245.888 162.555 175 250 175C263.807 175 275 186.193 275 200C275 213.807 263.807 225 250 225ZM525 333.333C525 393.163 476.497 441.667 416.667 441.667C402.86 441.667 391.667 452.86 391.667 466.667C391.667 480.473 402.86 491.667 416.667 491.667C504.113 491.667 575 420.78 575 333.333C575 245.888 504.113 175 416.667 175C329.22 175 258.333 245.888 258.333 333.333C258.333 347.14 269.527 358.333 283.333 358.333C297.14 358.333 308.333 347.14 308.333 333.333C308.333 273.503 356.837 225 416.667 225C476.497 225 525 273.503 525 333.333Z" fill="#3F566C"/>
</svg>
