<svg width="1134" height="600" viewBox="0 0 1134 600" fill="none" xmlns="http://www.w3.org/2000/svg">
<path d="M189.263 372.371L152.904 261.678L116.111 372.371H189.263ZM120.44 175.186H185.368L303.536 488.889H229.519L210.04 433.319H95.7674L76.2891 488.889H2.27148L120.44 175.186ZM451.636 242.408H399.261V302.011H450.77C466.353 302.011 480.637 291.256 480.637 271.537C480.637 254.508 467.651 242.408 451.636 242.408ZM455.532 357.582H399.261V421.219H457.263C474.577 421.219 487.563 407.326 487.563 389.849C487.563 369.682 472.846 357.582 455.532 357.582ZM456.83 488.889H329.139V175.186H449.905C502.712 175.186 546.43 202.074 546.43 262.126C546.43 286.774 534.744 310.974 508.34 325.763C542.102 340.552 557.252 365.2 557.252 396.571C557.252 460.208 510.937 488.889 456.83 488.889Z" fill="black"/>
<path d="M945.112 372.371L981.472 261.678L1018.26 372.371H945.112ZM1013.94 175.186H949.008L830.84 488.889H904.857L924.336 433.319H1038.61L1058.09 488.889H1132.1L1013.94 175.186ZM682.74 242.408H735.115V302.011H683.606C668.023 302.011 653.739 291.256 653.739 271.537C653.739 254.508 666.724 242.408 682.74 242.408ZM678.844 357.582H735.115V421.219H677.113C659.799 421.219 646.813 407.326 646.813 389.849C646.813 369.682 661.53 357.582 678.844 357.582ZM677.546 488.889H805.237V175.186H684.471C631.663 175.186 587.945 202.074 587.945 262.126C587.945 286.774 599.632 310.974 626.036 325.763C592.274 340.552 577.124 365.2 577.124 396.571C577.124 460.208 623.439 488.889 677.546 488.889Z" fill="black"/>
</svg>
