<svg width="673" height="717" viewBox="0 0 673 717" fill="none" xmlns="http://www.w3.org/2000/svg">
<path fill-rule="evenodd" clip-rule="evenodd" d="M336.165 0C193.493 0 77.8334 115.66 77.8334 258.333V281.803C77.8334 305.033 70.957 327.747 58.071 347.073L19.784 404.503C-24.6523 471.16 9.27135 561.76 86.5577 582.837C111.745 589.707 137.144 595.517 162.691 600.27L162.755 600.44C188.388 668.837 256.898 716.667 336.165 716.667C415.432 716.667 483.942 668.837 509.575 600.44L509.639 600.27C535.185 595.517 560.589 589.707 585.775 582.837C663.062 561.76 696.985 471.16 652.549 404.503L614.262 347.073C601.375 327.747 594.499 305.033 594.499 281.803V258.333C594.499 115.66 478.839 0 336.165 0ZM448.712 609.567C373.949 618.5 298.379 618.497 223.615 609.563C247.313 643.617 288.532 666.667 336.165 666.667C383.795 666.667 425.015 643.617 448.712 609.567ZM127.833 258.333C127.833 143.274 221.107 50 336.165 50C451.225 50 544.499 143.274 544.499 258.333V281.803C544.499 314.907 554.299 347.267 572.659 374.81L610.945 432.24C636.452 470.497 616.982 522.5 572.619 534.6C417.812 576.82 254.522 576.82 99.7133 534.6C55.3523 522.5 35.881 470.497 61.3867 432.24L99.6734 374.81C118.035 347.267 127.833 314.907 127.833 281.803V258.333Z" fill="#3F566C"/>
</svg>
