<svg width="800" height="800" viewBox="0 0 800 800" fill="none" xmlns="http://www.w3.org/2000/svg">
<path d="M399.6 0C373.18 0.210316 347.908 10.8261 329.264 29.5457C310.619 48.2653 300.104 73.5796 300 100H250C217.15 100 191.1 103 169.15 111.25C147.2 119.45 129.65 134.3 119.25 153.15C98.5 190.75 100.75 236.8 100 299.7V550.3C100.75 613.2 98.5 659.25 119.25 696.9C129.65 715.7 147.25 730.55 169.15 738.8C191.1 747 217.15 750 250 750H438.1C427.755 734.432 419.391 717.636 413.2 700H250C220.4 700 199.75 696.85 186.75 692C173.75 687.1 168.15 681.85 163.1 672.65C153 654.35 150.75 612.95 150 550V300C150.75 237.05 153 195.65 163.1 177.35C168.15 168.15 173.75 162.85 186.75 158C199.75 153.1 220.4 150 250 150V199.95H550V150C579.65 150 600.3 153.15 613.3 158C626.3 162.9 631.85 168.15 636.95 177.35C647 195.65 649.3 237.05 650 300V401.55C667.057 403.513 683.832 407.422 700 413.2V299.7C699.25 236.8 701.55 190.75 680.75 153.1C669.635 133.65 651.939 118.808 630.85 111.25C608.95 103 582.85 100 550 100H499.8C499.696 73.5796 489.181 48.2653 470.536 29.5457C451.892 10.8261 426.62 0.210316 400.2 0L399.6 0ZM400.1 50C428.05 50 450.1 72.1 450.1 100C450.167 106.585 448.919 113.117 446.43 119.213C443.941 125.309 440.261 130.848 435.604 135.504C430.948 140.161 425.409 143.841 419.313 146.33C413.217 148.819 406.685 150.067 400.1 150C390.242 150.132 380.573 147.293 372.35 141.853C364.128 136.414 357.734 128.624 354 119.5C351.438 113.319 350.129 106.691 350.15 100C350.15 72.1 372.2 50 400.15 50H400.1ZM250 300V350H550.6V300H250ZM250 400V450H483.7C503.726 433.941 526.353 421.427 550.6 413V400H250ZM249.5 500V550H399.5V500H249.5Z" fill="#808080"/>
<path fill-rule="evenodd" clip-rule="evenodd" d="M690.625 635.938H635.938V690.625C635.938 696.641 631.048 701.562 625 701.562C618.952 701.562 614.062 696.641 614.062 690.625V635.938H559.375C553.327 635.938 548.438 631.016 548.438 625C548.438 618.984 553.327 614.062 559.375 614.062H614.062V559.375C614.062 553.359 618.952 548.438 625 548.438C631.048 548.438 635.938 553.359 635.938 559.375V614.062H690.625C696.673 614.062 701.562 618.984 701.562 625C701.562 631.016 696.673 635.938 690.625 635.938ZM625 450C528.345 450 450 528.312 450 625C450 721.688 528.345 800 625 800C721.655 800 800 721.688 800 625C800 528.312 721.655 450 625 450Z" fill="#0075E0"/>
</svg>
