<svg width="650" height="650" viewBox="0 0 650 650" fill="none" xmlns="http://www.w3.org/2000/svg">
<path d="M50 0.0500023L200 0.199997C206.63 0.199998 212.989 2.83392 217.678 7.52233C222.366 12.2107 225 18.5696 225 25.2C225 31.8304 222.366 38.1893 217.678 42.8777C212.989 47.5661 206.63 50.2 200 50.2L50 50.05V200C50 206.63 47.3661 212.989 42.6777 217.678C37.9893 222.366 31.6304 225 25 225C18.3696 225 12.0107 222.366 7.32233 217.678C2.63392 212.989 0 206.63 0 200V0H50V0.0500023ZM50 649.95V650H0V450C0 443.37 2.63392 437.011 7.32233 432.322C12.0107 427.634 18.3696 425 25 425C31.6304 425 37.9893 427.634 42.6777 432.322C47.3661 437.011 50 443.37 50 450V599.95L200 599.8C206.63 599.8 212.989 602.434 217.678 607.122C222.366 611.811 225 618.17 225 624.8C225 631.43 222.366 637.789 217.678 642.478C212.989 647.166 206.63 649.8 200 649.8L50 649.95ZM600 0.0500023V0H650V200C650 206.63 647.366 212.989 642.678 217.678C637.989 222.366 631.63 225 625 225C618.37 225 612.011 222.366 607.322 217.678C602.634 212.989 600 206.63 600 200V50.05L450 50.2C443.37 50.2 437.011 47.5661 432.322 42.8777C427.634 38.1893 425 31.8304 425 25.2C425 18.5696 427.634 12.2107 432.322 7.52233C437.011 2.83392 443.37 0.199997 450 0.199997L600 0.0500023ZM600 649.95L450 649.8C443.37 649.8 437.011 647.166 432.322 642.478C427.634 637.789 425 631.43 425 624.8C425 618.17 427.634 611.811 432.322 607.122C437.011 602.434 443.37 599.8 450 599.8L600 599.95V450C600 443.37 602.634 437.011 607.322 432.322C612.011 427.634 618.37 425 625 425C631.63 425 637.989 427.634 642.678 432.322C647.366 437.011 650 443.37 650 450V650H600V649.95Z" fill="#3F566C"/>
</svg>
