<svg width="676" height="550" viewBox="0 0 676 550" fill="none" xmlns="http://www.w3.org/2000/svg">
<path d="M418.034 227.879C414.291 222.407 412.874 215.672 414.096 209.155C415.318 202.638 419.078 196.873 424.55 193.129L636.005 48.4483C641.477 44.7041 648.213 43.2871 654.729 44.509C661.246 45.7309 667.011 49.4917 670.755 54.9639C674.499 60.4361 675.916 67.1715 674.694 73.6885C673.473 80.2054 669.712 85.9701 664.24 89.7142L452.785 234.395C450.076 236.25 447.027 237.553 443.814 238.229C440.602 238.905 437.287 238.942 434.06 238.337C430.833 237.732 427.756 236.497 425.007 234.703C422.257 232.908 419.888 230.59 418.034 227.879ZM670.755 493.727C668.902 496.438 666.533 498.756 663.783 500.55C661.033 502.345 657.957 503.58 654.73 504.185C651.503 504.79 648.188 504.753 644.975 504.077C641.762 503.4 638.714 502.098 636.005 500.243L350.122 304.638L217.291 395.523C227.492 421.262 227.853 449.858 218.304 475.846C208.756 501.834 189.968 523.394 165.529 536.407C141.091 549.419 112.715 552.972 85.8224 546.386C58.93 539.801 35.4064 523.538 19.7456 500.706C4.08471 477.874 -2.61561 450.073 0.924643 422.613C4.4649 395.153 17.9976 369.96 38.9373 351.847C59.8771 333.734 86.7562 323.97 114.439 324.42C142.123 324.871 168.67 335.505 189.009 354.29L305.848 274.346L189.007 194.403C168.76 213.058 142.352 223.604 114.824 224.027C87.296 224.45 60.5762 214.721 39.7651 196.697C18.9541 178.672 5.50942 153.616 1.99757 126.309C-1.51427 99.0028 5.15269 71.3594 20.7258 48.6559C36.2989 25.9524 59.6874 9.77888 86.4266 3.22274C113.166 -3.33339 141.383 0.187041 165.692 13.112C190.001 26.037 208.698 47.4613 218.216 73.2951C227.733 99.129 227.404 127.563 217.291 153.17L664.24 458.977C669.712 462.721 673.472 468.486 674.694 475.003C675.916 481.52 674.499 488.255 670.755 493.727ZM175.122 436.845C175.123 422.386 170.109 408.373 160.936 397.195C151.763 386.018 138.999 378.366 124.817 375.545C110.635 372.724 95.9135 374.907 83.1609 381.723C70.4084 388.539 60.4138 399.566 54.8801 412.925C49.3464 426.284 48.6159 441.149 52.8132 454.986C57.0104 468.823 65.8757 480.777 77.8985 488.81C89.9213 496.844 104.358 500.46 118.748 499.043C133.138 497.626 146.592 491.263 156.816 481.038C162.638 475.248 167.254 468.361 170.396 460.776C173.538 453.19 175.145 445.056 175.122 436.845ZM156.816 156.038C165.557 147.297 171.51 136.161 173.921 124.037C176.333 111.913 175.095 99.3464 170.365 87.926C165.634 76.5056 157.623 66.7444 147.345 59.8768C137.067 53.0092 124.984 49.3437 112.622 49.3437C100.261 49.3437 88.1771 53.0092 77.899 59.8768C67.6209 66.7444 59.6101 76.5056 54.8797 87.926C50.1492 99.3464 48.9115 111.913 51.3231 124.037C53.7347 136.161 59.6873 147.297 68.4281 156.038C74.2036 161.892 81.0844 166.54 88.6711 169.712C96.2577 172.884 104.399 174.518 112.622 174.518C120.845 174.518 128.987 172.884 136.573 169.712C144.16 166.54 151.041 161.892 156.816 156.038Z" fill="#9AA3AF"/>
</svg>
