<svg width="898" height="668" viewBox="0 0 898 668" fill="none" xmlns="http://www.w3.org/2000/svg">
<path d="M540.938 345.279C506.792 345.279 473.415 335.155 445.024 316.183C416.633 297.216 394.508 270.252 381.442 238.706C368.372 207.16 364.956 172.448 371.618 138.959C378.279 105.47 394.719 74.7092 418.866 50.565C443.008 26.4208 473.77 9.97862 507.257 3.3175C540.745 -3.34408 575.457 0.0746362 607.006 13.1414C638.551 26.2081 665.515 48.3359 684.482 76.7261C703.454 105.117 713.578 138.495 713.578 172.64C713.578 218.426 695.388 262.338 663.015 294.716C630.637 327.09 586.727 345.279 540.938 345.279ZM540.938 69.0558C520.452 69.0558 500.425 75.1309 483.392 86.5127C466.358 97.8949 453.081 114.072 445.241 133C437.4 151.927 435.347 172.755 439.343 192.848C443.344 212.941 453.205 231.398 467.693 245.885C482.181 260.373 500.637 270.238 520.728 274.234C540.823 278.23 561.65 276.177 580.576 268.337C599.507 260.497 615.684 247.22 627.064 230.187C638.445 213.153 644.522 193.127 644.522 172.64C644.522 145.167 633.606 118.821 614.183 99.3948C594.756 79.9689 568.408 69.0558 540.938 69.0558Z" fill="#808080"/>
<path d="M863.195 667.541C854.075 667.422 845.36 663.748 838.91 657.298C832.461 650.848 828.787 642.134 828.667 633.014C828.667 543.241 779.868 483.393 540.935 483.393C302.002 483.393 253.202 543.241 253.202 633.014C253.202 642.17 249.564 650.954 243.089 657.427C236.614 663.905 227.832 667.541 218.674 667.541C209.517 667.541 200.735 663.905 194.259 657.427C187.784 650.954 184.146 642.17 184.146 633.014C184.146 414.337 434.128 414.337 540.935 414.337C647.741 414.337 897.723 414.337 897.723 633.014C897.603 642.134 893.93 650.848 887.48 657.298C881.03 663.748 872.315 667.422 863.195 667.541Z" fill="#808080"/>
<path d="M279.445 382.569H264.714C228.084 379.029 194.362 361.083 170.964 332.678C147.567 304.274 136.412 267.738 139.953 231.107C143.494 194.478 161.441 160.755 189.845 137.358C218.25 113.961 254.786 102.806 291.415 106.346C296.112 106.548 300.718 107.707 304.951 109.752C309.184 111.797 312.955 114.685 316.033 118.238C319.11 121.791 321.43 125.936 322.849 130.418C324.269 134.899 324.758 139.624 324.287 144.301C323.816 148.979 322.395 153.51 320.111 157.619C317.827 161.728 314.727 165.327 311.003 168.196C307.279 171.064 303.008 173.143 298.453 174.303C293.897 175.463 289.152 175.68 284.51 174.942C275.523 174.046 266.448 174.97 257.826 177.659C249.204 180.349 241.213 184.748 234.329 190.594C227.337 196.234 221.538 203.209 217.27 211.114C213.002 219.018 210.35 227.692 209.469 236.632C208.517 245.682 209.376 254.834 211.996 263.549C214.615 272.268 218.944 280.376 224.728 287.401C230.513 294.431 237.638 300.236 245.688 304.481C253.738 308.725 262.553 311.326 271.619 312.132C286.606 313.417 301.61 309.867 314.434 302.004C322.248 297.184 331.658 295.66 340.594 297.778C349.53 299.891 357.258 305.471 362.083 313.283C366.907 321.1 368.427 330.51 366.313 339.446C364.196 348.382 358.616 356.111 350.803 360.932C329.451 374.549 304.765 382.035 279.445 382.569Z" fill="#808080"/>
<path d="M34.5279 633.015C25.4075 632.895 16.6945 629.221 10.2447 622.771C3.7953 616.322 0.119236 607.607 0 598.487C0 474.186 33.1468 391.319 195.658 391.319C204.815 391.319 213.598 394.956 220.073 401.434C226.548 407.907 230.186 416.69 230.186 425.847C230.186 435.004 226.548 443.788 220.073 450.261C213.598 456.738 204.815 460.375 195.658 460.375C87.4707 460.375 69.0558 494.903 69.0558 598.487C68.9365 607.607 65.2605 616.322 58.8111 622.771C52.3613 629.221 43.6483 632.895 34.5279 633.015Z" fill="#808080"/>
</svg>
