<svg width="317" height="162" viewBox="0 0 317 162" fill="none" xmlns="http://www.w3.org/2000/svg">
<path d="M52.907 100.54L42.743 70.653L32.458 100.54H52.907ZM33.668 47.3H51.818L84.851 132H64.16L58.715 116.996H26.771L21.326 132H0.635011L33.668 47.3ZM126.251 65.45H111.61V81.543H126.009C130.365 81.543 134.358 78.639 134.358 73.315C134.358 68.717 130.728 65.45 126.251 65.45ZM127.34 96.547H111.61V113.729H127.824C132.664 113.729 136.294 109.978 136.294 105.259C136.294 99.814 132.18 96.547 127.34 96.547ZM127.703 132H92.008V47.3H125.767C140.529 47.3 152.75 54.56 152.75 70.774C152.75 77.429 149.483 83.963 142.102 87.956C151.54 91.949 155.775 98.604 155.775 107.074C155.775 124.256 142.828 132 127.703 132Z" fill="black"/>
<path d="M264.198 100.54L274.362 70.653L284.647 100.54H264.198ZM283.437 47.3H265.287L232.254 132H252.945L258.39 116.996H290.334L295.779 132H316.47L283.437 47.3ZM190.854 65.45H205.495V81.543H191.096C186.74 81.543 182.747 78.639 182.747 73.315C182.747 68.717 186.377 65.45 190.854 65.45ZM189.765 96.547H205.495V113.729H189.281C184.441 113.729 180.811 109.978 180.811 105.259C180.811 99.814 184.925 96.547 189.765 96.547ZM189.402 132H225.097V47.3H191.338C176.576 47.3 164.355 54.56 164.355 70.774C164.355 77.429 167.622 83.963 175.003 87.956C165.565 91.949 161.33 98.604 161.33 107.074C161.33 124.256 174.277 132 189.402 132Z" fill="black"/>
</svg>
